<svg width="500" height="250" viewBox="0 0 500 250" fill="none" xmlns="http://www.w3.org/2000/svg">
<rect width="500" height="250" fill="white"/>
<path d="M124.439 110.96C124.439 112.76 123.959 114.26 122.999 115.58C122.039 116.84 120.539 117.92 118.499 118.76C116.459 119.6 113.819 120.2 110.699 120.62C107.459 120.98 103.679 121.22 99.2389 121.22C94.7989 121.22 90.9589 120.98 87.8389 120.62C84.5989 120.2 82.0189 119.6 79.9789 118.76C77.9389 117.92 76.4389 116.84 75.4789 115.58C74.5189 114.26 74.0389 112.76 74.0389 110.96C74.0389 109.22 74.5189 107.66 75.4789 106.34C76.4389 105.08 77.9389 104 79.9789 103.16C82.0189 102.32 84.5989 101.72 87.8389 101.3C90.9589 100.94 94.7989 100.7 99.2389 100.7C103.679 100.7 107.459 100.94 110.699 101.3C113.819 101.72 116.459 102.32 118.499 103.16C120.539 104 122.039 105.08 122.999 106.34C123.959 107.66 124.439 109.22 124.439 110.96ZM71.9389 71.54C71.9389 70.34 72.1789 69.44 72.6589 68.9C73.1389 68.42 73.9789 68.18 75.2389 68.18H87.7789C88.2589 68.18 88.6189 68.3 88.8589 68.42C89.0389 68.66 89.1589 68.96 89.1589 69.44V71.12C89.1589 71.6 89.0389 71.96 88.8589 72.08C88.6189 72.32 88.2589 72.38 87.7789 72.38H85.6189C84.7189 72.38 84.1189 72.56 83.8189 72.86C83.4589 73.22 83.2789 73.76 83.2789 74.54V87.74C83.2789 89.48 83.9989 90.32 85.5589 90.32C87.2989 90.32 88.9789 89.72 90.5989 88.4V71.54C90.5989 70.34 90.8389 69.44 91.3189 68.9C91.7989 68.42 92.6389 68.18 93.8989 68.18H106.679C107.159 68.18 107.519 68.3 107.759 68.42C107.939 68.66 108.059 68.96 108.059 69.44V71.12C108.059 71.6 107.939 71.96 107.759 72.08C107.519 72.32 107.159 72.38 106.679 72.38H104.339C103.439 72.38 102.839 72.56 102.539 72.86C102.179 73.22 101.999 73.76 101.999 74.54V87.74C101.999 89.48 102.719 90.32 104.279 90.32C104.879 90.32 105.479 90.26 106.139 90.08C106.739 89.96 107.279 89.72 107.879 89.24C108.359 88.88 108.839 88.94 109.319 89.54L110.099 90.5C110.459 90.98 110.399 91.52 109.919 92C109.199 92.72 108.479 93.38 107.639 93.98C106.739 94.7 105.779 95.3 104.819 95.78C103.739 96.32 102.659 96.74 101.519 97.04C100.319 97.4 99.0589 97.52 97.7389 97.52C95.8189 97.52 94.3189 97.16 93.1189 96.32C91.9189 95.6 91.1389 94.28 90.7789 92.48C89.0989 94.04 87.2389 95.3 85.3189 96.14C83.2789 97.1 81.2389 97.52 79.0789 97.52C76.7989 97.52 75.0589 96.98 73.8589 95.78C72.5389 94.64 71.9389 92.72 71.9389 90.08V71.54ZM123.539 80.96H128.519C129.059 80.96 129.419 81.08 129.659 81.26C129.779 81.5 129.899 81.8 129.899 82.22V83.9C129.899 84.38 129.779 84.68 129.659 84.86C129.419 85.1 129.059 85.16 128.519 85.16H123.539V95.36C123.539 96.56 123.299 97.46 122.819 97.94C122.339 98.48 121.439 98.72 120.179 98.72H114.659C113.339 98.72 112.499 98.48 112.019 97.94C111.539 97.46 111.299 96.56 111.299 95.36V70.94C111.299 69.74 111.539 68.9 112.019 68.36C112.499 67.88 113.339 67.58 114.659 67.58H120.179C121.439 67.58 122.339 67.88 122.819 68.36C123.299 68.9 123.539 69.74 123.539 70.94V80.96ZM86.0389 110.96C86.0389 113 87.0589 114.5 89.2189 115.52C91.2589 116.48 94.6189 117.02 99.2389 117.02C103.799 117.02 107.159 116.48 109.319 115.52C111.359 114.5 112.439 113 112.439 110.96C112.439 108.92 111.359 107.42 109.319 106.4C107.159 105.44 103.799 104.9 99.2389 104.9C94.6189 104.9 91.2589 105.44 89.2189 106.4C87.0589 107.42 86.0389 108.92 86.0389 110.96ZM165.659 74.78C165.659 78.02 165.299 80.9 164.699 83.3C164.819 85.22 165.119 86.78 165.719 88.1C166.259 89.42 167.039 90.44 167.999 91.1C168.959 91.82 170.039 92.12 171.359 92.12C172.559 92.12 173.939 91.76 175.439 90.98C176.039 90.68 176.639 90.44 177.239 90.26C177.839 90.14 178.499 90.08 179.219 90.08C179.939 90.08 180.599 90.2 181.319 90.44C181.919 90.68 182.519 91.04 183.119 91.52C183.599 92.06 184.019 92.66 184.379 93.38C184.679 94.16 184.859 95.06 184.859 96.02C184.859 98.18 184.019 99.86 182.459 100.94C180.839 102.14 178.739 102.68 176.219 102.68C172.319 102.68 169.079 101.6 166.559 99.44C163.979 97.28 162.419 94.16 161.879 89.96C159.599 93.44 156.419 96.14 152.339 98C148.199 99.92 143.159 101.24 137.279 102.08C136.559 102.2 136.139 102.14 135.899 101.96C135.659 101.84 135.479 101.6 135.419 101.24L135.119 99.98C134.999 99.62 135.059 99.32 135.239 99.08C135.359 98.9 135.659 98.72 136.259 98.54C138.959 97.82 141.419 96.8 143.579 95.42C145.739 94.1 147.539 92.48 149.099 90.44C150.539 88.52 151.679 86.24 152.519 83.6C153.239 81.02 153.659 78.08 153.659 74.78V70.94C153.659 69.74 153.899 68.84 154.379 68.3C154.859 67.82 155.699 67.58 156.959 67.58H162.359C163.559 67.58 164.459 67.82 164.939 68.3C165.419 68.78 165.659 69.68 165.659 70.94V74.78ZM185.459 112.82C185.939 112.82 186.299 112.94 186.539 113.12C186.719 113.24 186.839 113.6 186.839 114.08V115.76C186.839 116.24 186.719 116.54 186.539 116.78C186.299 116.9 185.939 117.02 185.459 117.02H134.039C133.499 117.02 133.139 116.9 132.959 116.78C132.719 116.54 132.659 116.24 132.659 115.76V114.08C132.659 113.6 132.719 113.24 132.959 113.12C133.139 112.94 133.499 112.82 134.039 112.82H185.459ZM207.267 76.7H229.887V70.94C229.887 69.74 230.127 68.84 230.607 68.3C231.087 67.82 231.927 67.58 233.187 67.58H238.827C240.027 67.58 240.927 67.82 241.407 68.3C241.887 68.84 242.127 69.74 242.127 70.94V93.44C242.127 94.7 241.887 95.54 241.407 96.02C240.927 96.56 240.027 96.8 238.827 96.8H233.187C231.927 96.8 231.087 96.56 230.607 96.02C230.127 95.54 229.887 94.7 229.887 93.44V91.88C226.047 93.44 222.027 94.64 217.767 95.48C213.447 96.38 208.947 96.8 204.207 96.8C200.847 96.8 198.447 96.14 197.127 94.82C195.687 93.56 195.027 91.52 195.027 88.76V70.94C195.027 69.74 195.267 68.84 195.747 68.3C196.227 67.82 197.067 67.58 198.327 67.58H203.967C205.167 67.58 206.067 67.82 206.547 68.3C207.027 68.84 207.267 69.74 207.267 70.94V76.7ZM244.287 101.66C244.767 101.66 245.127 101.78 245.367 101.9C245.547 102.14 245.667 102.44 245.667 102.92V104.6C245.667 105.08 245.547 105.44 245.367 105.56C245.127 105.8 244.767 105.86 244.287 105.86H224.727V116.66C224.727 117.86 224.487 118.76 224.007 119.3C223.527 119.78 222.627 120.02 221.427 120.02H215.787C214.527 120.02 213.687 119.78 213.207 119.3C212.727 118.76 212.487 117.86 212.487 116.66V105.86H192.867C192.327 105.86 191.967 105.8 191.787 105.56C191.547 105.44 191.487 105.08 191.487 104.6V102.92C191.487 102.44 191.547 102.14 191.787 101.9C191.967 101.78 192.327 101.66 192.867 101.66H244.287ZM210.207 90.08C217.287 90.08 223.827 89.42 229.887 88.04V80.9H207.267V87.32C207.267 88.46 207.447 89.18 207.927 89.54C208.287 89.9 209.067 90.08 210.207 90.08ZM289.375 89.6H292.855V70.94C292.855 69.74 293.095 68.9 293.575 68.36C294.055 67.88 294.895 67.58 296.215 67.58H299.995C301.255 67.58 302.155 67.88 302.635 68.36C303.115 68.9 303.355 69.74 303.355 70.94V116.66C303.355 117.86 303.115 118.7 302.635 119.24C302.155 119.72 301.255 120.02 299.995 120.02H296.215C294.895 120.02 294.055 119.72 293.575 119.24C293.095 118.7 292.855 117.86 292.855 116.66V93.8H289.375V116.66C289.375 117.86 289.135 118.7 288.655 119.24C288.175 119.72 287.275 120.02 286.015 120.02H282.235C280.915 120.02 280.075 119.72 279.595 119.24C279.115 118.7 278.875 117.86 278.875 116.66V70.94C278.875 69.74 279.115 68.9 279.595 68.36C280.075 67.88 280.915 67.58 282.235 67.58H286.015C287.275 67.58 288.175 67.88 288.655 68.36C289.135 68.9 289.375 69.74 289.375 70.94V89.6ZM261.895 110.24C261.895 111.2 262.075 111.8 262.495 112.16C262.855 112.52 263.575 112.7 264.655 112.7C266.155 112.7 267.715 112.46 269.275 111.86C270.775 111.38 272.095 110.72 273.295 109.88C273.775 109.58 274.135 109.4 274.435 109.4C274.675 109.46 274.975 109.64 275.215 109.94L275.995 110.96C276.355 111.56 276.295 112.04 275.815 112.52C273.595 114.62 270.895 116.3 267.775 117.56C264.595 118.76 261.235 119.42 257.755 119.42C252.895 119.42 250.495 116.9 250.495 111.98V71.54C250.495 70.34 250.735 69.44 251.215 68.9C251.695 68.42 252.535 68.18 253.795 68.18H273.355C273.835 68.18 274.195 68.3 274.435 68.42C274.615 68.66 274.735 68.96 274.735 69.44V71.12C274.735 71.6 274.615 71.96 274.435 72.08C274.195 72.32 273.835 72.38 273.355 72.38H263.695C262.975 72.38 262.555 72.5 262.315 72.74C262.015 73.04 261.895 73.52 261.895 74.24V110.24ZM346.869 68.18C347.409 68.18 347.769 68.3 348.009 68.48C348.129 68.72 348.249 69.02 348.249 69.44V71.12C348.249 71.6 348.129 71.9 348.009 72.08C347.769 72.32 347.409 72.38 346.869 72.38H341.829V92.66C341.829 96.5 341.529 99.74 340.989 102.44C340.389 105.2 339.489 107.54 338.349 109.46C338.709 110 339.129 110.3 339.609 110.42C340.029 110.54 340.509 110.6 341.109 110.48C341.649 110.48 342.249 110.36 342.849 110.24C343.449 110.12 344.049 110.06 344.709 110.06C346.089 110.06 347.229 110.48 348.189 111.2C349.089 111.98 349.569 113.12 349.569 114.74C349.569 116.12 349.089 117.26 348.189 118.1C347.229 118.94 345.909 119.36 344.349 119.36C342.429 119.36 340.749 118.76 339.369 117.62C337.929 116.42 336.849 114.74 336.009 112.58C334.449 114.14 332.589 115.46 330.429 116.54C328.269 117.5 325.809 118.4 323.049 119.24C322.449 119.36 321.969 119.42 321.729 119.42C321.369 119.3 321.129 119.12 321.009 118.82L320.349 117.44C319.989 116.78 320.169 116.3 320.889 115.94C322.569 115.1 324.009 114.14 325.209 113.06C326.349 111.98 327.309 110.6 328.089 108.98C328.809 107.42 329.409 105.44 329.769 103.16C330.129 100.94 330.309 98.18 330.309 94.94V72.38H326.169V93.14C326.169 96.74 325.869 99.8 325.389 102.44C324.849 105.08 324.009 107.42 322.809 109.34C321.549 111.32 319.929 113 317.949 114.32C315.909 115.64 313.449 116.84 310.569 117.8C309.969 117.98 309.489 118.04 309.249 118.04C308.949 117.98 308.709 117.8 308.529 117.5L307.749 116.12C307.449 115.52 307.569 115.04 308.289 114.62C309.369 113.9 310.269 113.06 311.109 112.16C311.889 111.32 312.549 110.18 313.089 108.8C313.569 107.48 313.989 105.86 314.289 103.88C314.529 101.96 314.649 99.62 314.649 96.74V72.38H310.149C309.609 72.38 309.249 72.32 309.129 72.08C308.889 71.9 308.829 71.6 308.829 71.12V69.44C308.829 69.02 308.889 68.72 309.129 68.48C309.249 68.3 309.609 68.18 310.149 68.18H346.869ZM363.009 116.66C363.009 117.86 362.769 118.7 362.289 119.24C361.809 119.72 360.909 120.02 359.649 120.02H354.969C353.649 120.02 352.809 119.72 352.329 119.24C351.849 118.7 351.609 117.86 351.609 116.66V70.94C351.609 69.74 351.849 68.9 352.329 68.36C352.809 67.88 353.649 67.58 354.969 67.58H359.649C360.909 67.58 361.809 67.88 362.289 68.36C362.769 68.9 363.009 69.74 363.009 70.94V116.66ZM410.575 89.6H414.055V70.94C414.055 69.74 414.295 68.9 414.775 68.36C415.255 67.88 416.095 67.58 417.415 67.58H421.195C422.455 67.58 423.355 67.88 423.835 68.36C424.315 68.9 424.555 69.74 424.555 70.94V116.66C424.555 117.86 424.315 118.7 423.835 119.24C423.355 119.72 422.455 120.02 421.195 120.02H417.415C416.095 120.02 415.255 119.72 414.775 119.24C414.295 118.7 414.055 117.86 414.055 116.66V93.8H410.575V116.66C410.575 117.86 410.335 118.7 409.855 119.24C409.375 119.72 408.475 120.02 407.215 120.02H403.435C402.115 120.02 401.275 119.72 400.795 119.24C400.315 118.7 400.075 117.86 400.075 116.66V70.94C400.075 69.74 400.315 68.9 400.795 68.36C401.275 67.88 402.115 67.58 403.435 67.58H407.215C408.475 67.58 409.375 67.88 409.855 68.36C410.335 68.9 410.575 69.74 410.575 70.94V89.6ZM371.875 72.38C371.275 72.38 370.915 72.32 370.795 72.08C370.555 71.9 370.495 71.6 370.495 71.12V69.44C370.495 69.02 370.555 68.72 370.795 68.48C370.915 68.3 371.275 68.18 371.875 68.18H393.235C394.555 68.18 395.395 68.48 395.875 68.96C396.295 69.56 396.535 70.4 396.535 71.54V82.52C396.535 92.72 394.375 100.88 390.115 106.88C385.795 113 379.435 117.08 371.095 119.3C370.195 119.48 369.595 119.3 369.355 118.7L368.755 117.38C368.395 116.66 368.695 116.12 369.595 115.7C372.295 114.38 374.635 112.82 376.555 111.02C378.415 109.22 379.975 107.06 381.175 104.48C382.315 101.96 383.155 98.9 383.755 95.36C384.235 91.88 384.535 87.8 384.535 83.06V74.24C384.535 73.52 384.415 73.04 384.175 72.74C383.875 72.5 383.395 72.38 382.735 72.38H371.875ZM49.1097 144.12C48.7897 144.12 48.6297 144 48.6297 143.68V142.56C48.6297 142.28 48.7897 142.12 49.1097 142.12H71.1097C71.4297 142.12 71.5897 142.28 71.5897 142.56V143.68C71.5897 144 71.4297 144.12 71.1097 144.12H63.4297V173.04C63.4297 173.64 63.3097 174.08 63.0697 174.32C62.7897 174.56 62.3497 174.68 61.7497 174.68H58.4697C57.8297 174.68 57.4297 174.56 57.1897 174.32C56.9097 174.08 56.7897 173.64 56.7897 173.04V144.12H49.1097ZM92.6369 173.04C92.5969 173.64 92.4769 174.08 92.2369 174.32C91.9969 174.56 91.5569 174.68 90.9569 174.68H87.6769C87.0369 174.68 86.5969 174.56 86.3569 174.32C86.0769 174.08 85.9569 173.64 85.9969 173.04V171.68C85.5969 172.16 85.1569 172.6 84.5969 173.08C83.9969 173.48 83.3569 173.88 82.6369 174.24C81.9169 174.56 81.1169 174.8 80.3169 175.04C79.4369 175.2 78.5969 175.32 77.7169 175.32C76.9169 175.32 76.0769 175.24 75.2769 175.12C74.3969 174.96 73.6369 174.68 72.9569 174.28C72.2369 173.88 71.6769 173.32 71.2769 172.68C70.7969 171.96 70.5969 171.08 70.5969 170.04C70.5969 168.92 70.8369 167.96 71.3569 167.16C71.8369 166.4 72.5169 165.76 73.3969 165.2C74.2369 164.72 75.2369 164.28 76.3569 163.96C77.4769 163.64 78.6369 163.36 79.8369 163.12C80.3169 163.04 80.7969 162.96 81.3569 162.84C81.8769 162.76 82.4369 162.64 82.9969 162.52L84.6369 162.28C85.1569 162.2 85.6369 162.16 86.1169 162.08V161.64C86.1169 160.6 86.0769 159.72 86.0369 158.92C85.9569 158.2 85.7569 157.56 85.5169 157.04C85.1969 156.56 84.7969 156.16 84.3169 155.92C83.7969 155.68 83.1169 155.56 82.2369 155.56C80.7169 155.56 79.7169 155.96 79.1569 156.76C78.5569 157.6 78.2769 158.72 78.2769 160.12C78.2769 160.76 78.1569 161.2 77.9169 161.4C77.6369 161.64 77.0769 161.72 76.2369 161.72H73.6369C72.7969 161.72 72.2769 161.64 72.0369 161.4C71.7569 161.2 71.6369 160.76 71.6369 160.12C71.6369 159.2 71.7969 158.32 72.1969 157.52C72.5569 156.72 73.1569 156.04 73.9969 155.44C74.7969 154.88 75.8369 154.4 77.1969 154.04C78.4769 153.72 80.1169 153.56 82.0369 153.56C83.9969 153.56 85.6769 153.76 87.0769 154.12C88.4369 154.52 89.5169 155.16 90.3969 155.96C91.1969 156.8 91.7969 157.84 92.1969 159.12C92.5569 160.44 92.7169 162 92.7169 163.8L92.6369 173.04ZM80.8369 172.96C81.8369 172.96 82.7969 172.68 83.7569 172.2C84.6369 171.68 85.3969 171.04 86.0369 170.28L86.0769 163.64C85.2769 163.8 84.4769 164 83.6369 164.24C82.7569 164.52 82.0769 164.76 81.5169 164.92C80.5969 165.24 79.8769 165.56 79.3169 165.88C78.7569 166.24 78.3169 166.6 77.9969 167C77.6769 167.4 77.4369 167.84 77.3569 168.28C77.2369 168.76 77.1969 169.28 77.1969 169.76C77.1969 170.8 77.5169 171.56 78.1569 172.12C78.7969 172.68 79.6769 172.96 80.8369 172.96ZM86.4769 169.64C86.3969 169.76 86.3569 169.84 86.3569 169.84L86.4769 169.64ZM121.515 173.04C121.515 173.64 121.395 174.08 121.155 174.32C120.875 174.56 120.435 174.68 119.835 174.68H116.555C115.915 174.68 115.515 174.56 115.275 174.32C114.995 174.08 114.875 173.64 114.875 173.04V161.2C114.875 159.36 114.555 158.04 113.955 157.24C113.315 156.48 112.315 156.08 110.955 156.08C109.915 156.08 108.915 156.48 107.955 157.24C106.995 158.04 105.995 159.28 104.995 160.96V173.04C104.995 173.64 104.875 174.08 104.635 174.32C104.355 174.56 103.915 174.68 103.315 174.68H100.035C99.3947 174.68 98.9947 174.56 98.7547 174.32C98.4747 174.08 98.3547 173.64 98.3547 173.04V155.8C98.3547 155.2 98.4747 154.76 98.7547 154.52C98.9947 154.28 99.3947 154.16 100.035 154.16H103.315C103.915 154.16 104.355 154.28 104.635 154.52C104.875 154.76 104.995 155.2 104.995 155.8V157.92C106.035 156.48 107.275 155.36 108.675 154.64C110.035 153.92 111.515 153.56 113.075 153.56C115.875 153.56 117.955 154.2 119.395 155.44C120.795 156.72 121.515 158.64 121.515 161.28V173.04ZM150.265 174.72C150.265 176.44 150.065 177.96 149.665 179.32C149.225 180.6 148.545 181.72 147.625 182.64C146.665 183.52 145.465 184.2 143.985 184.68C142.465 185.12 140.665 185.36 138.505 185.36C134.665 185.36 131.945 184.8 130.265 183.72C128.545 182.6 127.705 181.12 127.705 179.24C127.705 178.44 127.825 177.88 128.105 177.64C128.345 177.32 128.865 177.2 129.705 177.2H132.305C133.145 177.2 133.705 177.32 133.985 177.64C134.225 177.88 134.345 178.44 134.345 179.24C134.345 180.68 134.665 181.72 135.385 182.4C136.065 183.04 137.185 183.36 138.705 183.36C139.665 183.36 140.505 183.2 141.145 182.92C141.785 182.6 142.265 182.08 142.665 181.4C142.985 180.68 143.265 179.76 143.425 178.64C143.545 177.52 143.625 176.12 143.625 174.48V171.72C142.785 172.88 141.745 173.8 140.465 174.44C139.185 175.04 137.785 175.36 136.265 175.36C134.825 175.36 133.465 175.12 132.265 174.68C131.025 174.2 129.945 173.48 129.065 172.6C128.105 171.64 127.385 170.52 126.905 169.16C126.345 167.8 126.105 166.24 126.105 164.48C126.105 162.72 126.345 161.16 126.905 159.8C127.385 158.44 128.105 157.32 129.065 156.36C129.945 155.48 131.025 154.76 132.265 154.28C133.465 153.84 134.825 153.6 136.265 153.6C137.785 153.6 139.185 153.92 140.465 154.56C141.745 155.2 142.785 156.12 143.625 157.28V155.8C143.625 155.2 143.745 154.76 144.025 154.52C144.265 154.28 144.665 154.16 145.305 154.16H148.585C149.185 154.16 149.625 154.28 149.905 154.52C150.145 154.76 150.265 155.2 150.265 155.8V174.72ZM132.745 164.48C132.745 167.44 133.225 169.6 134.225 170.92C135.185 172.28 136.425 172.96 138.025 172.96C139.385 172.96 140.545 172.48 141.545 171.52C142.505 170.56 143.225 169.28 143.625 167.76V161.2C143.225 159.68 142.505 158.44 141.545 157.44C140.545 156.48 139.385 156 138.025 156C136.425 156 135.185 156.68 134.225 158C133.225 159.36 132.745 161.52 132.745 164.48ZM166.015 175.32C162.375 175.32 159.575 174.8 157.615 173.8C155.615 172.76 154.655 171.36 154.655 169.56C154.655 168.88 154.815 168.4 155.135 168.12C155.455 167.88 156.015 167.72 156.895 167.72H159.055C159.455 167.72 159.815 167.76 160.135 167.76C160.415 167.8 160.655 167.88 160.855 167.96C161.015 168.12 161.135 168.28 161.215 168.52C161.255 168.76 161.295 169.12 161.295 169.56C161.295 170.76 161.695 171.64 162.495 172.32C163.295 172.96 164.535 173.32 166.215 173.32C167.975 173.32 169.295 173.04 170.095 172.48C170.855 171.92 171.255 171 171.255 169.72C171.255 169.16 171.135 168.64 170.935 168.16C170.695 167.72 170.335 167.28 169.815 166.88C169.255 166.52 168.495 166.16 167.535 165.84C166.575 165.52 165.335 165.24 163.895 165C162.175 164.72 160.775 164.4 159.655 164.04C158.535 163.72 157.655 163.28 157.015 162.8C156.335 162.36 155.855 161.84 155.615 161.24C155.335 160.68 155.215 160.04 155.215 159.24C155.215 158.44 155.415 157.72 155.895 157C156.295 156.32 156.975 155.72 157.895 155.2C158.775 154.72 159.895 154.32 161.295 154C162.655 153.72 164.255 153.56 166.095 153.56C169.575 153.56 172.255 154.16 174.135 155.28C175.975 156.48 176.935 157.96 176.935 159.72C176.935 160.44 176.775 160.92 176.455 161.16C176.135 161.44 175.535 161.56 174.695 161.56H172.535C171.655 161.56 171.095 161.44 170.775 161.16C170.455 160.92 170.295 160.44 170.295 159.72C170.295 158.24 169.895 157.16 169.175 156.52C168.415 155.88 167.335 155.56 165.895 155.56C164.455 155.56 163.455 155.88 162.815 156.52C162.175 157.2 161.855 158.16 161.855 159.4C161.855 160.6 162.335 161.56 163.295 162.24C164.255 162.96 165.655 163.44 167.495 163.76C169.575 164.16 171.255 164.52 172.615 164.88C173.935 165.28 175.015 165.72 175.815 166.2C176.575 166.68 177.135 167.24 177.455 167.8C177.735 168.4 177.895 169.08 177.895 169.84C177.895 170.64 177.655 171.32 177.255 172C176.815 172.64 176.135 173.24 175.215 173.76C174.255 174.24 173.015 174.6 171.535 174.92C170.015 175.16 168.175 175.32 166.015 175.32ZM198.9 157.76C202.02 158.24 204.26 159.2 205.66 160.72C207.02 162.24 207.74 164.08 207.74 166.24C207.74 169.08 206.78 171.16 204.9 172.6C202.98 173.96 200.06 174.68 196.14 174.68H183.98C183.34 174.68 182.94 174.56 182.7 174.32C182.42 174.08 182.3 173.64 182.3 173.04V143.36C182.3 142.76 182.42 142.32 182.7 142.08C182.94 141.84 183.34 141.72 183.98 141.72H194.14C198.18 141.72 201.18 142.4 203.18 143.68C205.14 145 206.14 147.04 206.14 149.76C206.14 151.8 205.54 153.52 204.38 154.92C203.18 156.36 201.38 157.28 198.9 157.76ZM188.94 156.92H191.9C193.42 156.92 194.66 156.76 195.66 156.36C196.62 156.04 197.42 155.52 198.02 154.88C198.58 154.28 198.94 153.56 199.18 152.68C199.38 151.88 199.5 150.96 199.5 150C199.5 149.12 199.38 148.28 199.18 147.48C198.94 146.76 198.58 146.08 198.06 145.52C197.5 144.96 196.74 144.52 195.86 144.2C194.9 143.88 193.74 143.72 192.3 143.72H190.02C189.58 143.72 189.3 143.8 189.18 143.88C189.02 144.04 188.94 144.32 188.94 144.76V156.92ZM188.94 158.92V171.64C188.94 172.08 189.02 172.36 189.18 172.52C189.3 172.6 189.58 172.68 190.02 172.68H192.9C195.78 172.68 197.9 172.08 199.18 170.92C200.46 169.8 201.1 167.96 201.1 165.44C201.1 164.56 200.94 163.68 200.66 162.88C200.34 162.12 199.86 161.44 199.18 160.84C198.46 160.28 197.54 159.8 196.42 159.44C195.22 159.12 193.78 158.92 192.1 158.92H188.94ZM212.339 155.8C212.339 155.2 212.459 154.76 212.739 154.52C212.979 154.28 213.379 154.16 214.019 154.16H217.299C217.899 154.16 218.339 154.28 218.619 154.52C218.859 154.76 218.979 155.2 218.979 155.8V167.64C218.979 169.52 219.259 170.84 219.899 171.6C220.499 172.36 221.499 172.76 222.899 172.76C223.939 172.76 224.939 172.36 225.899 171.6C226.859 170.84 227.819 169.6 228.859 167.92V155.8C228.859 155.2 228.979 154.76 229.259 154.52C229.499 154.28 229.899 154.16 230.539 154.16H233.819C234.419 154.16 234.859 154.28 235.139 154.52C235.379 154.76 235.499 155.2 235.499 155.8V173.04C235.499 173.64 235.379 174.08 235.139 174.32C234.859 174.56 234.419 174.68 233.819 174.68H230.539C229.899 174.68 229.499 174.56 229.259 174.32C228.979 174.08 228.859 173.64 228.859 173.04V170.96C227.739 172.4 226.499 173.48 225.139 174.2C223.739 174.92 222.299 175.28 220.779 175.28C217.979 175.28 215.859 174.64 214.459 173.4C213.019 172.12 212.339 170.2 212.339 167.56V155.8ZM257.649 143.4C257.649 142.8 257.769 142.36 258.049 142.12C258.289 141.88 258.689 141.76 259.329 141.76H262.609C263.209 141.76 263.649 141.88 263.929 142.12C264.169 142.36 264.289 142.8 264.289 143.4V173.08C264.289 173.68 264.169 174.12 263.929 174.36C263.649 174.6 263.209 174.72 262.609 174.72H259.329C258.689 174.72 258.289 174.6 258.049 174.36C257.769 174.12 257.649 173.68 257.649 173.08V172.12C256.889 173.2 255.889 174 254.649 174.56C253.369 175.08 252.009 175.36 250.649 175.36C249.129 175.36 247.729 175.12 246.449 174.68C245.129 174.2 244.009 173.48 243.089 172.6C242.129 171.64 241.369 170.52 240.889 169.16C240.329 167.8 240.089 166.24 240.089 164.48C240.089 162.72 240.329 161.16 240.889 159.8C241.369 158.44 242.129 157.32 243.089 156.36C244.009 155.48 245.129 154.76 246.449 154.28C247.729 153.84 249.129 153.6 250.649 153.6C252.009 153.6 253.369 153.88 254.649 154.4C255.889 154.96 256.889 155.76 257.649 156.84V143.4ZM246.729 164.48C246.729 166 246.849 167.28 247.169 168.32C247.449 169.4 247.849 170.28 248.409 170.92C248.889 171.6 249.489 172.12 250.209 172.48C250.889 172.8 251.609 172.96 252.409 172.96C253.049 172.96 253.689 172.8 254.329 172.56C254.969 172.24 255.529 171.84 256.049 171.36C256.529 170.84 256.889 170.2 257.209 169.4C257.489 168.68 257.649 167.8 257.649 166.8V162.16C257.649 161.2 257.489 160.32 257.209 159.52C256.889 158.8 256.529 158.16 256.049 157.6C255.529 157.12 254.969 156.72 254.329 156.4C253.689 156.16 253.049 156 252.409 156C251.609 156 250.889 156.16 250.209 156.48C249.489 156.84 248.889 157.36 248.409 158C247.849 158.72 247.449 159.6 247.169 160.64C246.849 161.76 246.729 163.04 246.729 164.48ZM290.918 173.04C290.878 173.64 290.758 174.08 290.518 174.32C290.278 174.56 289.838 174.68 289.238 174.68H285.958C285.318 174.68 284.878 174.56 284.638 174.32C284.358 174.08 284.238 173.64 284.278 173.04V171.68C283.878 172.16 283.438 172.6 282.878 173.08C282.278 173.48 281.638 173.88 280.918 174.24C280.198 174.56 279.398 174.8 278.598 175.04C277.718 175.2 276.878 175.32 275.998 175.32C275.198 175.32 274.358 175.24 273.558 175.12C272.678 174.96 271.918 174.68 271.238 174.28C270.518 173.88 269.958 173.32 269.558 172.68C269.078 171.96 268.878 171.08 268.878 170.04C268.878 168.92 269.118 167.96 269.638 167.16C270.118 166.4 270.798 165.76 271.678 165.2C272.518 164.72 273.518 164.28 274.638 163.96C275.758 163.64 276.918 163.36 278.118 163.12C278.598 163.04 279.078 162.96 279.638 162.84C280.158 162.76 280.718 162.64 281.278 162.52L282.918 162.28C283.438 162.2 283.918 162.16 284.398 162.08V161.64C284.398 160.6 284.358 159.72 284.318 158.92C284.238 158.2 284.038 157.56 283.798 157.04C283.478 156.56 283.078 156.16 282.598 155.92C282.078 155.68 281.398 155.56 280.518 155.56C278.998 155.56 277.998 155.96 277.438 156.76C276.838 157.6 276.558 158.72 276.558 160.12C276.558 160.76 276.438 161.2 276.198 161.4C275.918 161.64 275.358 161.72 274.518 161.72H271.918C271.078 161.72 270.558 161.64 270.318 161.4C270.038 161.2 269.918 160.76 269.918 160.12C269.918 159.2 270.078 158.32 270.478 157.52C270.838 156.72 271.438 156.04 272.278 155.44C273.078 154.88 274.118 154.4 275.478 154.04C276.758 153.72 278.398 153.56 280.318 153.56C282.278 153.56 283.958 153.76 285.358 154.12C286.718 154.52 287.798 155.16 288.678 155.96C289.478 156.8 290.078 157.84 290.478 159.12C290.838 160.44 290.998 162 290.998 163.8L290.918 173.04ZM279.118 172.96C280.118 172.96 281.078 172.68 282.038 172.2C282.918 171.68 283.678 171.04 284.318 170.28L284.358 163.64C283.558 163.8 282.758 164 281.918 164.24C281.038 164.52 280.358 164.76 279.798 164.92C278.878 165.24 278.158 165.56 277.598 165.88C277.038 166.24 276.598 166.6 276.278 167C275.958 167.4 275.718 167.84 275.638 168.28C275.518 168.76 275.478 169.28 275.478 169.76C275.478 170.8 275.798 171.56 276.438 172.12C277.078 172.68 277.958 172.96 279.118 172.96ZM284.758 169.64C284.678 169.76 284.638 169.84 284.638 169.84L284.758 169.64ZM302.276 165.12C302.276 166.68 302.436 167.96 302.676 169C302.876 170.08 303.196 170.96 303.676 171.6C304.076 172.24 304.636 172.68 305.316 173C305.956 173.28 306.716 173.44 307.596 173.44C308.996 173.44 310.076 173.08 310.876 172.4C311.596 171.68 311.996 170.64 311.996 169.28C311.996 168.68 312.116 168.24 312.396 168C312.636 167.76 313.036 167.64 313.676 167.64H316.956C317.556 167.64 317.996 167.76 318.236 168C318.476 168.24 318.596 168.68 318.596 169.28C318.596 170.36 318.316 171.24 317.756 172.04C317.156 172.76 316.356 173.4 315.356 173.92C314.316 174.4 313.076 174.76 311.716 175C310.316 175.2 308.836 175.32 307.236 175.32C305.476 175.32 303.876 175.08 302.476 174.68C301.036 174.2 299.796 173.56 298.796 172.68C297.756 171.76 296.996 170.64 296.476 169.28C295.916 167.92 295.636 166.32 295.636 164.44C295.636 162.6 295.916 160.96 296.516 159.6C297.076 158.24 297.916 157.12 298.996 156.2C300.036 155.32 301.276 154.68 302.716 154.2C304.156 153.8 305.716 153.56 307.436 153.56C309.276 153.56 310.956 153.8 312.436 154.28C313.876 154.76 315.076 155.44 316.116 156.32C317.076 157.2 317.836 158.24 318.396 159.44C318.916 160.68 319.196 162.04 319.196 163.48C319.196 164.12 319.076 164.52 318.876 164.76C318.636 165 318.196 165.12 317.596 165.12H302.276ZM307.636 155.56C304.356 155.56 302.556 158.08 302.276 163.12H312.636C312.556 160.6 312.196 158.72 311.476 157.44C310.716 156.2 309.436 155.56 307.636 155.56ZM337.714 166.12C337.714 167.6 337.554 168.92 337.234 170.08C336.914 171.28 336.394 172.28 335.714 173.16C334.994 173.96 334.034 174.6 332.914 175.08C331.754 175.52 330.354 175.76 328.754 175.76C326.794 175.76 325.234 175.28 324.114 174.4C322.954 173.48 322.074 172.32 321.474 170.92C321.314 170.6 321.394 170.36 321.634 170.2L322.514 169.68C322.794 169.52 323.034 169.64 323.234 169.96C323.794 171.08 324.434 172 325.114 172.72C325.754 173.4 326.594 173.76 327.594 173.76C328.234 173.76 328.794 173.64 329.274 173.44C329.714 173.2 330.074 172.88 330.354 172.4C330.594 171.88 330.794 171.24 330.914 170.44C330.994 169.68 331.074 168.72 331.074 167.56V143.36C331.074 142.76 331.194 142.32 331.474 142.08C331.714 141.84 332.114 141.72 332.754 141.72H336.034C336.634 141.72 337.074 141.84 337.354 142.08C337.594 142.32 337.714 142.76 337.714 143.36V166.12ZM354.276 174.76C354.276 176.48 354.116 178 353.876 179.28C353.556 180.56 353.116 181.6 352.476 182.48C351.836 183.32 350.956 183.96 349.916 184.4C348.796 184.8 347.476 185 345.876 185C345.156 185 344.436 184.88 343.756 184.68C343.036 184.44 342.396 184.12 341.796 183.72C341.156 183.28 340.636 182.76 340.156 182.2C339.676 181.6 339.316 180.96 339.036 180.24C338.956 180.04 338.956 179.88 338.996 179.8C339.076 179.64 339.196 179.52 339.396 179.4L339.876 179.08C340.116 178.92 340.276 178.88 340.436 178.96C340.596 179 340.716 179.16 340.876 179.44C341.436 180.52 342.116 181.36 342.836 182C343.556 182.56 344.276 182.88 345.076 182.88C346.036 182.88 346.716 182.48 347.116 181.68C347.436 180.88 347.636 179.52 347.636 177.6V153.8C347.636 153.2 347.756 152.76 348.036 152.52C348.276 152.28 348.676 152.16 349.316 152.16H352.596C353.196 152.16 353.636 152.28 353.916 152.52C354.156 152.76 354.276 153.2 354.276 153.8V174.76ZM347.636 144.76C347.636 143.84 347.956 143.04 348.596 142.4C349.236 141.76 349.996 141.44 350.956 141.44C351.876 141.44 352.676 141.76 353.316 142.4C353.956 143.04 354.276 143.84 354.276 144.76C354.276 145.72 353.956 146.48 353.316 147.12C352.676 147.76 351.876 148.08 350.956 148.08C349.996 148.08 349.236 147.76 348.596 147.12C347.956 146.48 347.636 145.72 347.636 144.76ZM359.878 144.76C359.878 143.84 360.198 143.04 360.838 142.4C361.478 141.76 362.238 141.44 363.198 141.44C364.118 141.44 364.918 141.76 365.558 142.4C366.198 143.04 366.518 143.84 366.518 144.76C366.518 145.72 366.198 146.48 365.558 147.12C364.918 147.76 364.118 148.08 363.198 148.08C362.238 148.08 361.478 147.76 360.838 147.12C360.198 146.48 359.878 145.72 359.878 144.76ZM366.518 173.04C366.518 173.64 366.398 174.08 366.158 174.32C365.878 174.56 365.438 174.68 364.838 174.68H361.558C360.918 174.68 360.518 174.56 360.278 174.32C359.998 174.08 359.878 173.64 359.878 173.04V153.8C359.878 153.2 359.998 152.76 360.278 152.52C360.518 152.28 360.918 152.16 361.558 152.16H364.838C365.438 152.16 365.878 152.28 366.158 152.52C366.398 152.76 366.518 153.2 366.518 153.8V173.04ZM395.265 174.72C395.265 176.44 395.065 177.96 394.665 179.32C394.225 180.6 393.545 181.72 392.625 182.64C391.665 183.52 390.465 184.2 388.985 184.68C387.465 185.12 385.665 185.36 383.505 185.36C379.665 185.36 376.945 184.8 375.265 183.72C373.545 182.6 372.705 181.12 372.705 179.24C372.705 178.44 372.825 177.88 373.105 177.64C373.345 177.32 373.865 177.2 374.705 177.2H377.305C378.145 177.2 378.705 177.32 378.985 177.64C379.225 177.88 379.345 178.44 379.345 179.24C379.345 180.68 379.665 181.72 380.385 182.4C381.065 183.04 382.185 183.36 383.705 183.36C384.665 183.36 385.505 183.2 386.145 182.92C386.785 182.6 387.265 182.08 387.665 181.4C387.985 180.68 388.265 179.76 388.425 178.64C388.545 177.52 388.625 176.12 388.625 174.48V171.72C387.785 172.88 386.745 173.8 385.465 174.44C384.185 175.04 382.785 175.36 381.265 175.36C379.825 175.36 378.465 175.12 377.265 174.68C376.025 174.2 374.945 173.48 374.065 172.6C373.105 171.64 372.385 170.52 371.905 169.16C371.345 167.8 371.105 166.24 371.105 164.48C371.105 162.72 371.345 161.16 371.905 159.8C372.385 158.44 373.105 157.32 374.065 156.36C374.945 155.48 376.025 154.76 377.265 154.28C378.465 153.84 379.825 153.6 381.265 153.6C382.785 153.6 384.185 153.92 385.465 154.56C386.745 155.2 387.785 156.12 388.625 157.28V155.8C388.625 155.2 388.745 154.76 389.025 154.52C389.265 154.28 389.665 154.16 390.305 154.16H393.585C394.185 154.16 394.625 154.28 394.905 154.52C395.145 154.76 395.265 155.2 395.265 155.8V174.72ZM377.745 164.48C377.745 167.44 378.225 169.6 379.225 170.92C380.185 172.28 381.425 172.96 383.025 172.96C384.385 172.96 385.545 172.48 386.545 171.52C387.505 170.56 388.225 169.28 388.625 167.76V161.2C388.225 159.68 387.505 158.44 386.545 157.44C385.545 156.48 384.385 156 383.025 156C381.425 156 380.185 156.68 379.225 158C378.225 159.36 377.745 161.52 377.745 164.48ZM421.895 173.04C421.855 173.64 421.735 174.08 421.495 174.32C421.255 174.56 420.815 174.68 420.215 174.68H416.935C416.295 174.68 415.855 174.56 415.615 174.32C415.335 174.08 415.215 173.64 415.255 173.04V171.68C414.855 172.16 414.415 172.6 413.855 173.08C413.255 173.48 412.615 173.88 411.895 174.24C411.175 174.56 410.375 174.8 409.575 175.04C408.695 175.2 407.855 175.32 406.975 175.32C406.175 175.32 405.335 175.24 404.535 175.12C403.655 174.96 402.895 174.68 402.215 174.28C401.495 173.88 400.935 173.32 400.535 172.68C400.055 171.96 399.855 171.08 399.855 170.04C399.855 168.92 400.095 167.96 400.615 167.16C401.095 166.4 401.775 165.76 402.655 165.2C403.495 164.72 404.495 164.28 405.615 163.96C406.735 163.64 407.895 163.36 409.095 163.12C409.575 163.04 410.055 162.96 410.615 162.84C411.135 162.76 411.695 162.64 412.255 162.52L413.895 162.28C414.415 162.2 414.895 162.16 415.375 162.08V161.64C415.375 160.6 415.335 159.72 415.295 158.92C415.215 158.2 415.015 157.56 414.775 157.04C414.455 156.56 414.055 156.16 413.575 155.92C413.055 155.68 412.375 155.56 411.495 155.56C409.975 155.56 408.975 155.96 408.415 156.76C407.815 157.6 407.535 158.72 407.535 160.12C407.535 160.76 407.415 161.2 407.175 161.4C406.895 161.64 406.335 161.72 405.495 161.72H402.895C402.055 161.72 401.535 161.64 401.295 161.4C401.015 161.2 400.895 160.76 400.895 160.12C400.895 159.2 401.055 158.32 401.455 157.52C401.815 156.72 402.415 156.04 403.255 155.44C404.055 154.88 405.095 154.4 406.455 154.04C407.735 153.72 409.375 153.56 411.295 153.56C413.255 153.56 414.935 153.76 416.335 154.12C417.695 154.52 418.775 155.16 419.655 155.96C420.455 156.8 421.055 157.84 421.455 159.12C421.815 160.44 421.975 162 421.975 163.8L421.895 173.04ZM410.095 172.96C411.095 172.96 412.055 172.68 413.015 172.2C413.895 171.68 414.655 171.04 415.295 170.28L415.335 163.64C414.535 163.8 413.735 164 412.895 164.24C412.015 164.52 411.335 164.76 410.775 164.92C409.855 165.24 409.135 165.56 408.575 165.88C408.015 166.24 407.575 166.6 407.255 167C406.935 167.4 406.695 167.84 406.615 168.28C406.495 168.76 406.455 169.28 406.455 169.76C406.455 170.8 406.775 171.56 407.415 172.12C408.055 172.68 408.935 172.96 410.095 172.96ZM415.735 169.64C415.655 169.76 415.615 169.84 415.615 169.84L415.735 169.64ZM433.253 165.12C433.253 166.68 433.413 167.96 433.653 169C433.853 170.08 434.173 170.96 434.653 171.6C435.053 172.24 435.613 172.68 436.293 173C436.933 173.28 437.693 173.44 438.573 173.44C439.973 173.44 441.053 173.08 441.853 172.4C442.573 171.68 442.973 170.64 442.973 169.28C442.973 168.68 443.093 168.24 443.373 168C443.613 167.76 444.013 167.64 444.653 167.64H447.933C448.533 167.64 448.973 167.76 449.213 168C449.453 168.24 449.573 168.68 449.573 169.28C449.573 170.36 449.293 171.24 448.733 172.04C448.133 172.76 447.333 173.4 446.333 173.92C445.293 174.4 444.053 174.76 442.693 175C441.293 175.2 439.813 175.32 438.213 175.32C436.453 175.32 434.853 175.08 433.453 174.68C432.013 174.2 430.773 173.56 429.773 172.68C428.733 171.76 427.973 170.64 427.452 169.28C426.893 167.92 426.613 166.32 426.613 164.44C426.613 162.6 426.893 160.96 427.493 159.6C428.053 158.24 428.893 157.12 429.973 156.2C431.013 155.32 432.253 154.68 433.693 154.2C435.133 153.8 436.693 153.56 438.413 153.56C440.253 153.56 441.933 153.8 443.413 154.28C444.853 154.76 446.053 155.44 447.093 156.32C448.053 157.2 448.813 158.24 449.373 159.44C449.893 160.68 450.173 162.04 450.173 163.48C450.173 164.12 450.053 164.52 449.853 164.76C449.613 165 449.173 165.12 448.573 165.12H433.253ZM438.613 155.56C435.333 155.56 433.533 158.08 433.253 163.12H443.613C443.533 160.6 443.173 158.72 442.453 157.44C441.693 156.2 440.413 155.56 438.613 155.56Z" fill="black"/>
</svg>
